name ./resultDataOpenSim/trcMotMarkerGrf/sub09/grf-03-06.mot
datacolumns 19
datarows 27
range 0.49200000 0.59600000
endheader

                time	     ground_force_vx	     ground_force_vy	     ground_force_vz	     ground_force_px	     ground_force_py	     ground_force_pz	   l_ground_force_vx	   l_ground_force_vy	   l_ground_force_vz	   l_ground_force_px	   l_ground_force_py	   l_ground_force_pz	     ground_torque_x	     ground_torque_y	     ground_torque_z	   l_ground_torque_x	   l_ground_torque_y	   l_ground_torque_z	
          0.49200000	         37.11133346	        385.93920557	        -22.79407212	         -0.75580410	          0.00000000	          0.18755605	          0.00000000	          0.00000000	          0.00000000	          0.00000000	          0.00000000	          0.00000000	          0.00000000	          0.00418096	          0.00000000	          0.00000000	          0.00000000	          0.00000000	
          0.49600000	         41.15513802	        392.49889766	        -22.82862074	         -0.75619513	          0.00000000	          0.18754441	          0.00000000	          0.00000000	          0.00000000	          0.00000000	          0.00000000	          0.00000000	          0.00000000	          0.14011142	          0.00000000	          0.00000000	          0.00000000	          0.00000000	
          0.50000000	         45.06715581	        400.15764759	        -22.33701890	         -0.75652777	          0.00000000	          0.18739249	          0.00000000	          0.00000000	          0.00000000	          0.00000000	          0.00000000	          0.00000000	          0.00000000	          0.35547422	          0.00000000	          0.00000000	          0.00000000	          0.00000000	
          0.50400000	         48.85824492	        408.92648367	        -21.48740426	         -0.75678427	          0.00000000	          0.18712751	          0.00000000	          0.00000000	          0.00000000	          0.00000000	          0.00000000	          0.00000000	          0.00000000	          0.63047492	          0.00000000	          0.00000000	          0.00000000	          0.00000000	
          0.50800000	         52.55423526	        418.80613627	        -20.49142234	         -0.75696229	          0.00000000	          0.18678723	          0.00000000	          0.00000000	          0.00000000	          0.00000000	          0.00000000	          0.00000000	          0.00000000	          0.93964253	          0.00000000	          0.00000000	          0.00000000	          0.00000000	
          0.51200000	         56.17444640	        429.80467597	        -19.55488576	         -0.75705740	          0.00000000	          0.18640007	          0.00000000	          0.00000000	          0.00000000	          0.00000000	          0.00000000	          0.00000000	          0.00000000	          1.25773290	          0.00000000	          0.00000000	          0.00000000	          0.00000000	
          0.51600000	         59.72266122	        441.94126212	        -18.83480558	         -0.75705684	          0.00000000	          0.18599399	          0.00000000	          0.00000000	          0.00000000	          0.00000000	          0.00000000	          0.00000000	          0.00000000	          1.56513757	          0.00000000	          0.00000000	          0.00000000	          0.00000000	
          0.52000000	         63.18607286	        455.23390334	        -18.41528623	         -0.75696435	          0.00000000	          0.18558622	          0.00000000	          0.00000000	          0.00000000	          0.00000000	          0.00000000	          0.00000000	          0.00000000	          1.85141930	          0.00000000	          0.00000000	          0.00000000	          0.00000000	
          0.52400000	         66.53747519	        469.66754708	        -18.30604696	         -0.75679133	          0.00000000	          0.18518248	          0.00000000	          0.00000000	          0.00000000	          0.00000000	          0.00000000	          0.00000000	          0.00000000	          2.11612655	          0.00000000	          0.00000000	          0.00000000	          0.00000000	
          0.52800000	         69.74286891	        485.16275173	        -18.45590513	         -0.75654457	          0.00000000	          0.18477965	          0.00000000	          0.00000000	          0.00000000	          0.00000000	          0.00000000	          0.00000000	          0.00000000	          2.36678468	          0.00000000	          0.00000000	          0.00000000	          0.00000000	
          0.53200000	         72.77484116	        501.57149901	        -18.77306220	         -0.75622523	          0.00000000	          0.18437527	          0.00000000	          0.00000000	          0.00000000	          0.00000000	          0.00000000	          0.00000000	          0.00000000	          2.61474079	          0.00000000	          0.00000000	          0.00000000	          0.00000000	
          0.53600000	         75.62860170	        518.70070878	        -19.15100590	         -0.75582803	          0.00000000	          0.18397458	          0.00000000	          0.00000000	          0.00000000	          0.00000000	          0.00000000	          0.00000000	          0.00000000	          2.87010980	          0.00000000	          0.00000000	          0.00000000	          0.00000000	
          0.54000000	         78.33703943	        536.34420220	        -19.49916745	         -0.75534632	          0.00000000	          0.18358636	          0.00000000	          0.00000000	          0.00000000	          0.00000000	          0.00000000	          0.00000000	          0.00000000	          3.13724554	          0.00000000	          0.00000000	          0.00000000	          0.00000000	
          0.54400000	         80.97918414	        554.30747984	        -19.77007740	         -0.75478047	          0.00000000	          0.18322052	          0.00000000	          0.00000000	          0.00000000	          0.00000000	          0.00000000	          0.00000000	          0.00000000	          3.41192403	          0.00000000	          0.00000000	          0.00000000	          0.00000000	
          0.54800000	         83.67496179	        572.42019570	        -19.97230194	         -0.75414027	          0.00000000	          0.18288096	          0.00000000	          0.00000000	          0.00000000	          0.00000000	          0.00000000	          0.00000000	          0.00000000	          3.68089224	          0.00000000	          0.00000000	          0.00000000	          0.00000000	
          0.55200000	         86.56575489	        590.53050447	        -20.16632339	         -0.75343929	          0.00000000	          0.18256705	          0.00000000	          0.00000000	          0.00000000	          0.00000000	          0.00000000	          0.00000000	          0.00000000	          3.92378680	          0.00000000	          0.00000000	          0.00000000	          0.00000000	
          0.55600000	         89.78775434	        608.48759708	        -20.44735963	         -0.75268506	          0.00000000	          0.18228044	          0.00000000	          0.00000000	          0.00000000	          0.00000000	          0.00000000	          0.00000000	          0.00000000	          4.11686274	          0.00000000	          0.00000000	          0.00000000	          0.00000000	
          0.56000000	         93.44531388	        626.13439167	        -20.91893794	         -0.75187626	          0.00000000	          0.18202494	          0.00000000	          0.00000000	          0.00000000	          0.00000000	          0.00000000	          0.00000000	          0.00000000	          4.23762095	          0.00000000	          0.00000000	          0.00000000	          0.00000000	
          0.56400000	         97.58985975	        643.31773080	        -21.66214840	         -0.75100748	          0.00000000	          0.18180258	          0.00000000	          0.00000000	          0.00000000	          0.00000000	          0.00000000	          0.00000000	          0.00000000	          4.26930951	          0.00000000	          0.00000000	          0.00000000	          0.00000000	
          0.56800000	        102.20964496	        659.90042821	        -22.71045064	         -0.75007124	          0.00000000	          0.18161140	          0.00000000	          0.00000000	          0.00000000	          0.00000000	          0.00000000	          0.00000000	          0.00000000	          4.20436786	          0.00000000	          0.00000000	          0.00000000	          0.00000000	
          0.57200000	        107.23595140	        675.76197465	        -24.03766183	         -0.74905761	          0.00000000	          0.18144819	          0.00000000	          0.00000000	          0.00000000	          0.00000000	          0.00000000	          0.00000000	          0.00000000	          4.04613574	          0.00000000	          0.00000000	          0.00000000	          0.00000000	
          0.57600000	        112.56416849	        690.79323890	        -25.55821132	         -0.74795735	          0.00000000	          0.18131058	          0.00000000	          0.00000000	          0.00000000	          0.00000000	          0.00000000	          0.00000000	          0.00000000	          3.80850879	          0.00000000	          0.00000000	          0.00000000	          0.00000000	
          0.58000000	        118.07944812	        704.89032194	        -27.13772583	         -0.74676907	          0.00000000	          0.18118585	          0.00000000	          0.00000000	          0.00000000	          0.00000000	          0.00000000	          0.00000000	          0.00000000	          3.51363457	          0.00000000	          0.00000000	          0.00000000	          0.00000000	
          0.58400000	        123.68079946	        717.94833892	        -28.61361171	         -0.74549713	          0.00000000	          0.18105162	          0.00000000	          0.00000000	          0.00000000	          0.00000000	          0.00000000	          0.00000000	          0.00000000	          3.18815684	          0.00000000	          0.00000000	          0.00000000	          0.00000000	
          0.58800000	        129.29952203	        729.86609061	        -29.82081718	         -0.74415553	          0.00000000	          0.18088730	          0.00000000	          0.00000000	          0.00000000	          0.00000000	          0.00000000	          0.00000000	          0.00000000	          2.85886264	          0.00000000	          0.00000000	          0.00000000	          0.00000000	
          0.59200000	        134.90691365	        740.56181534	        -30.61629341	         -0.74275883	          0.00000000	          0.18067748	          0.00000000	          0.00000000	          0.00000000	          0.00000000	          0.00000000	          0.00000000	          0.00000000	          2.54873114	          0.00000000	          0.00000000	          0.00000000	          0.00000000	
          0.59600000	        140.51176075	        749.98094791	        -30.89974394	         -0.74132322	          0.00000000	          0.18040651	          0.00000000	          0.00000000	          0.00000000	          0.00000000	          0.00000000	          0.00000000	          0.00000000	          2.27423157	          0.00000000	          0.00000000	          0.00000000	          0.00000000	
